<svg width="32" height="33" viewBox="0 0 32 33" fill="none" xmlns="http://www.w3.org/2000/svg">
<path d="M10.6665 3.16667V7.16667" stroke="#5184E4" stroke-width="1.5" stroke-miterlimit="10" stroke-linecap="round" stroke-linejoin="round"/>
<path d="M21.3335 3.16667V7.16667" stroke="#5184E4" stroke-width="1.5" stroke-miterlimit="10" stroke-linecap="round" stroke-linejoin="round"/>
<path opacity="0.4" d="M4.6665 12.62H27.3332" stroke="#5184E4" stroke-width="1.5" stroke-miterlimit="10" stroke-linecap="round" stroke-linejoin="round"/>
<path d="M23.9998 31.1667C26.9454 31.1667 29.3332 28.7789 29.3332 25.8333C29.3332 22.8878 26.9454 20.5 23.9998 20.5C21.0543 20.5 18.6665 22.8878 18.6665 25.8333C18.6665 28.7789 21.0543 31.1667 23.9998 31.1667Z" stroke="#5184E4" stroke-width="1.5" stroke-miterlimit="10" stroke-linecap="round" stroke-linejoin="round"/>
<path d="M25.9865 25.9H22.0132" stroke="#5184E4" stroke-width="1.5" stroke-miterlimit="10" stroke-linecap="round" stroke-linejoin="round"/>
<path d="M24 23.9533V27.94" stroke="#5184E4" stroke-width="1.5" stroke-miterlimit="10" stroke-linecap="round" stroke-linejoin="round"/>
<path d="M28 11.8333V22.3133C27.0267 21.2066 25.6 20.5 24 20.5C21.0533 20.5 18.6667 22.8867 18.6667 25.8333C18.6667 26.8333 18.9467 27.78 19.44 28.58C19.72 29.06 20.08 29.4867 20.4933 29.8333H10.6667C6 29.8333 4 27.1667 4 23.1667V11.8333C4 7.83333 6 5.16667 10.6667 5.16667H21.3333C26 5.16667 28 7.83333 28 11.8333Z" stroke="#5184E4" stroke-width="1.5" stroke-miterlimit="10" stroke-linecap="round" stroke-linejoin="round"/>
<path opacity="0.4" d="M15.9938 18.7667H16.0058" stroke="#5184E4" stroke-width="2" stroke-linecap="round" stroke-linejoin="round"/>
<path opacity="0.4" d="M11.0592 18.7667H11.0712" stroke="#5184E4" stroke-width="2" stroke-linecap="round" stroke-linejoin="round"/>
<path opacity="0.4" d="M11.0591 22.7667H11.0711" stroke="#5184E4" stroke-width="2" stroke-linecap="round" stroke-linejoin="round"/>
</svg>
