<svg width="24" height="25" viewBox="0 0 24 25" fill="none" xmlns="http://www.w3.org/2000/svg">
<path d="M12 12.0662C14.7614 12.0662 17 9.82763 17 7.06621C17 4.30478 14.7614 2.06621 12 2.06621C9.23858 2.06621 7 4.30478 7 7.06621C7 9.82763 9.23858 12.0662 12 12.0662Z" stroke="#7A778C" stroke-width="1.5" stroke-linecap="round" stroke-linejoin="round"/>
<path opacity="0.4" d="M3.40967 22.0662C3.40967 18.1962 7.25966 15.0662 11.9997 15.0662C12.9597 15.0662 13.8897 15.1962 14.7597 15.4362" stroke="#7A778C" stroke-width="1.5" stroke-linecap="round" stroke-linejoin="round"/>
<path d="M22 18.0662C22 18.3862 21.96 18.6962 21.88 18.9962C21.79 19.3962 21.63 19.7862 21.42 20.1262C20.73 21.2862 19.46 22.0662 18 22.0662C16.97 22.0662 16.04 21.6762 15.34 21.0362C15.04 20.7762 14.78 20.4662 14.58 20.1262C14.21 19.5262 14 18.8162 14 18.0662C14 16.9862 14.43 15.9962 15.13 15.2762C15.86 14.5262 16.88 14.0662 18 14.0662C19.18 14.0662 20.25 14.5762 20.97 15.3962C21.61 16.1062 22 17.0462 22 18.0662Z" stroke="#7A778C" stroke-width="1.5" stroke-miterlimit="10" stroke-linecap="round" stroke-linejoin="round"/>
<path d="M19.4897 18.0462H16.5098" stroke="#7A778C" stroke-width="1.5" stroke-miterlimit="10" stroke-linecap="round" stroke-linejoin="round"/>
<path d="M18 16.5862V19.5762" stroke="#7A778C" stroke-width="1.5" stroke-miterlimit="10" stroke-linecap="round" stroke-linejoin="round"/>
</svg>
